<?xml version="1.0" standalone="no"?>
<!DOCTYPE svg PUBLIC "-//W3C//DTD SVG 20010904//EN" "http://www.w3.org/TR/2001/REC-SVG-20010904/DTD/svg10.dtd">
<svg version="1.0" xmlns="http://www.w3.org/2000/svg"
    width="512.000000pt" height="512.000000pt" viewBox="0 0 512.000000 512.000000"
    preserveAspectRatio="xMidYMid meet">

    <g transform="translate(0.000000,512.000000) scale(0.100000,-0.100000)"
        fill="#000000" stroke="none">
        <path
            d="M10 4866 c0 -3 432 -570 961 -1261 528 -691 958 -1262 956 -1268 -3
-7 -407 -471 -899 -1033 -491 -561 -899 -1028 -907 -1037 -13 -16 12 -17 378
-17 l391 0 702 804 c387 443 705 805 708 805 3 1 282 -361 620 -804 l615 -804
788 -1 c433 0 787 2 787 5 0 2 -452 602 -1004 1332 l-1005 1328 28 30 c16 17
392 446 836 955 444 509 817 935 828 948 l20 22 -394 -1 -394 0 -640 -734
c-352 -404 -642 -734 -645 -735 -3 0 -255 331 -560 735 l-555 734 -807 1
c-445 0 -808 -2 -808 -4z m2770 -2282 c767 -1015 1397 -1850 1398 -1855 2 -5
-83 -9 -211 -9 l-214 0 -1409 1842 c-775 1013 -1413 1848 -1417 1855 -7 11 35
13 225 13 l233 -1 1395 -1845z" />
    </g>
</svg>